<svg width="36" height="36" viewBox="0 0 36 36" fill="none" xmlns="http://www.w3.org/2000/svg">
<rect width="36" height="36" rx="10" fill="white"/>
<path d="M23.9541 11.6119C23.3075 11.0518 22.4728 10.7572 21.6178 10.7877C20.7629 10.8181 19.9512 11.1712 19.3461 11.7759L12.5601 18.5599C12.4227 18.7073 12.2571 18.8255 12.0731 18.9075C11.8891 18.9895 11.6905 19.0336 11.4891 19.0371C11.2877 19.0407 11.0876 19.0036 10.9009 18.9282C10.7141 18.8527 10.5444 18.7405 10.402 18.598C10.2595 18.4556 10.1473 18.2859 10.0718 18.0991C9.99638 17.9124 9.95933 17.7123 9.96288 17.5109C9.96643 17.3095 10.0105 17.1109 10.0925 16.9269C10.1745 16.7429 10.2927 16.5773 10.4401 16.4399L17.2241 9.65594C17.8201 9.05189 18.5306 8.57273 19.314 8.24648C20.0974 7.92024 20.938 7.75345 21.7866 7.75589C22.6352 7.75832 23.4748 7.92991 24.2563 8.26064C25.0378 8.59137 25.7455 9.07459 26.3381 9.68205C26.9307 10.2895 27.3962 11.009 27.7074 11.7985C28.0187 12.588 28.1694 13.4316 28.1507 14.28C28.1321 15.1284 27.9445 15.9646 27.5989 16.7396C27.2534 17.5147 26.7567 18.2131 26.1381 18.7939L16.6921 27.7859C15.9619 28.4983 14.9787 28.8915 13.9587 28.8789C12.9387 28.8663 11.9654 28.4491 11.2531 27.7189C10.5407 26.9888 10.1475 26.0056 10.1601 24.9856C10.1727 23.9656 10.5899 22.9923 11.3201 22.2799L19.8061 13.7919C19.9445 13.6487 20.1101 13.5345 20.2931 13.456C20.4762 13.3775 20.673 13.3362 20.8722 13.3346C21.0713 13.3329 21.2688 13.371 21.4532 13.4465C21.6375 13.522 21.8049 13.6335 21.9457 13.7744C22.0864 13.9153 22.1977 14.0828 22.2731 14.2672C22.3484 14.4516 22.3863 14.6491 22.3844 14.8483C22.3826 15.0474 22.3411 15.2442 22.2624 15.4272C22.1837 15.6102 22.0694 15.7756 21.9261 15.9139L13.4461 24.4019C13.2977 24.5609 13.2163 24.771 13.2187 24.9884C13.2211 25.2059 13.3071 25.4141 13.4589 25.5697C13.6108 25.7254 13.8167 25.8167 14.0341 25.8245C14.2514 25.8324 14.4634 25.7563 14.6261 25.6119L24.0701 16.6199C24.4117 16.2948 24.6817 15.9017 24.8625 15.4661C25.0434 15.0305 25.1311 14.5618 25.1202 14.0903C25.1093 13.6187 24.9999 13.1546 24.7991 12.7278C24.5983 12.3011 24.3104 11.921 23.9541 11.6119Z" fill="#256BF4"/>
</svg>
