<svg width="22" height="17" viewBox="0 0 22 17" fill="none" xmlns="http://www.w3.org/2000/svg">
<path d="M10.949 10.6226C14.3802 10.6226 17.31 11.1666 17.31 13.3434C17.31 15.5192 14.399 16.083 10.949 16.083C7.51785 16.083 4.58809 15.539 4.58809 13.3632C4.58809 11.1864 7.49904 10.6226 10.949 10.6226ZM16.4351 9.31189C17.7468 9.28757 19.1571 9.46769 19.6782 9.59558C20.7823 9.81262 21.5084 10.2557 21.8093 10.8997C22.0636 11.4283 22.0636 12.0416 21.8093 12.5694C21.349 13.5682 19.8654 13.8888 19.2887 13.9716C19.1696 13.9896 19.0738 13.8861 19.0864 13.7663C19.3809 10.9987 17.0377 9.68654 16.4315 9.38484C16.4055 9.37133 16.4002 9.35061 16.4028 9.338C16.4046 9.329 16.4154 9.31459 16.4351 9.31189ZM5.31858 9.31002L5.5656 9.31225C5.5853 9.31495 5.59515 9.32936 5.59694 9.33746C5.59962 9.35097 5.59425 9.37078 5.56918 9.38519C4.9621 9.6869 2.61883 10.9991 2.91342 13.7657C2.92595 13.8864 2.83104 13.9891 2.71195 13.972C2.13531 13.8891 0.651629 13.5685 0.191392 12.5697C-0.0637974 12.0411 -0.0637974 11.4287 0.191392 10.9C0.492248 10.2561 1.21752 9.81298 2.32156 9.59504C2.84358 9.46805 4.25294 9.28793 5.5656 9.31225L5.31858 9.31002ZM10.949 0.0830078C13.2851 0.0830078 15.1583 1.96528 15.1583 4.31586C15.1583 6.66554 13.2851 8.54961 10.949 8.54961C8.61292 8.54961 6.73974 6.66554 6.73974 4.31586C6.73974 1.96528 8.61292 0.0830078 10.949 0.0830078ZM16.6634 0.788903C18.9198 0.788903 20.6918 2.92424 20.0883 5.30274C19.6809 6.90402 18.2062 7.96764 16.5631 7.92441C16.3984 7.91991 16.2363 7.9046 16.0796 7.87758C15.9659 7.85777 15.9086 7.72898 15.973 7.63351C16.5998 6.70589 16.9571 5.59004 16.9571 4.39223C16.9571 3.14219 16.5667 1.9768 15.8889 1.02126C15.8674 0.99154 15.8513 0.945609 15.8728 0.911386C15.8907 0.883467 15.9238 0.869057 15.9551 0.861853C16.1835 0.815021 16.4181 0.788903 16.6634 0.788903ZM5.33593 0.788813C5.58127 0.788813 5.81586 0.814931 6.04509 0.861763C6.07553 0.868967 6.10956 0.884278 6.12746 0.911296C6.14806 0.945519 6.13284 0.99145 6.11135 1.02117C5.43353 1.97671 5.04313 3.1421 5.04313 4.39214C5.04313 5.58995 5.4004 6.7058 6.02718 7.63342C6.09165 7.72889 6.03434 7.85768 5.92063 7.87749C5.76304 7.90541 5.60186 7.91982 5.43711 7.92432C3.79404 7.96755 2.31932 6.90393 1.91191 5.30265C1.30751 2.92415 3.07951 0.788813 5.33593 0.788813Z" fill="#8C8C8C"/>
</svg>
