<svg width="21" height="21" viewBox="0 0 21 21" fill="none" xmlns="http://www.w3.org/2000/svg">
<path d="M9.49246 0.0830078C11.975 0.0830078 13.9997 2.07301 13.9997 4.52301V9.31301H7.89507C7.45757 9.31301 7.11164 9.65301 7.11164 10.083C7.11164 10.503 7.45757 10.853 7.89507 10.853H13.9997V15.633C13.9997 18.083 11.975 20.083 9.47211 20.083H4.51717C2.02443 20.083 -0.000274658 18.093 -0.000274658 15.643V4.53301C-0.000274658 2.07301 2.03461 0.0830078 4.52734 0.0830078H9.49246ZM16.5399 6.63321C16.8399 6.32321 17.3299 6.32321 17.6299 6.62321L20.5499 9.53321C20.6999 9.68321 20.7799 9.87321 20.7799 10.0832C20.7799 10.2832 20.6999 10.4832 20.5499 10.6232L17.6299 13.5332C17.4799 13.6832 17.2799 13.7632 17.0899 13.7632C16.8899 13.7632 16.6899 13.6832 16.5399 13.5332C16.2399 13.2332 16.2399 12.7432 16.5399 12.4432L18.1399 10.8532H13.9999V9.31321H18.1399L16.5399 7.72321C16.2399 7.42321 16.2399 6.93321 16.5399 6.63321Z" fill="#8C8C8C"/>
</svg>
