<svg width="36" height="36" viewBox="0 0 36 36" fill="none" xmlns="http://www.w3.org/2000/svg">
<rect width="36" height="36" fill="#8C8C8C"/>
<g clip-path="url(#clip0)">
<path d="M21.2 20.6668C20.5905 22.4192 18.9143 23.7144 16.8571 23.7144C14.3429 23.7144 12.2857 21.6573 12.2857 19.143C12.2857 17.1621 13.581 15.4859 15.3333 14.8002C15.3333 14.724 15.3333 14.6478 15.3333 14.5716C15.3333 13.8097 15.4857 13.0478 15.7143 12.3621C12.5143 12.8954 10 15.7144 10 19.143C10 22.9525 13.0476 26.0002 16.8571 26.0002C20.2857 26.0002 23.1048 23.4859 23.6381 20.2859C22.9524 20.5144 22.1905 20.6668 21.4286 20.6668C21.3524 20.6668 21.2762 20.6668 21.2 20.6668Z" fill="white"/>
<path d="M21.4284 10C18.9141 10 16.8569 12.0571 16.8569 14.5714C16.8569 17.0857 18.9141 19.1429 21.4284 19.1429C23.9426 19.1429 25.9998 17.0857 25.9998 14.5714C25.9998 12.0571 23.9426 10 21.4284 10ZM21.4284 16.8571C20.1331 16.8571 19.1426 15.8667 19.1426 14.5714C19.1426 13.2762 20.1331 12.2857 21.4284 12.2857C22.7236 12.2857 23.7141 13.2762 23.7141 14.5714C23.7141 15.8667 22.7236 16.8571 21.4284 16.8571Z" fill="white"/>
</g>
<defs>
<clipPath id="clip0">
<rect width="16" height="16" fill="white" transform="translate(10 10)"/>
</clipPath>
</defs>
</svg>
