<svg width="24" height="25" viewBox="0 0 24 25" fill="none" xmlns="http://www.w3.org/2000/svg">
<g clip-path="url(#clip0)">
<path d="M6 0.0825195C5.175 0.0825195 4.5 0.757519 4.5 1.58252V22.5825C4.5 23.4075 5.175 24.0825 6 24.0825H21C21.825 24.0825 22.5 23.4075 22.5 22.5825V6.08252L16.5 0.0825195H6Z" fill="#E2E5E7"/>
<path d="M18 6.08252H22.5L16.5 0.0825195V4.58252C16.5 5.40752 17.175 6.08252 18 6.08252Z" fill="#B0B7BD"/>
<path d="M22.5 10.5825L18 6.08252H22.5V10.5825Z" fill="#CAD1D8"/>
<path d="M19.5 19.5825C19.5 19.995 19.1625 20.3325 18.75 20.3325H2.25C1.8375 20.3325 1.5 19.995 1.5 19.5825V12.0825C1.5 11.67 1.8375 11.3325 2.25 11.3325H18.75C19.1625 11.3325 19.5 11.67 19.5 12.0825V19.5825Z" fill="#F15642"/>
<path d="M4.76923 14.2929C4.76923 14.0949 4.92523 13.8789 5.17648 13.8789H6.56173C7.34173 13.8789 8.04373 14.4009 8.04373 15.4014C8.04373 16.3494 7.34173 16.8774 6.56173 16.8774H5.56048V17.6694C5.56048 17.9334 5.39248 18.0827 5.17648 18.0827C4.97848 18.0827 4.76923 17.9334 4.76923 17.6694V14.2929ZM5.56048 14.6342V16.1282H6.56173C6.96373 16.1282 7.28173 15.7734 7.28173 15.4014C7.28173 14.9822 6.96373 14.6342 6.56173 14.6342H5.56048Z" fill="white"/>
<path d="M9.21826 18.0824C9.02026 18.0824 8.80426 17.9744 8.80426 17.7111V14.3046C8.80426 14.0894 9.02026 13.9326 9.21826 13.9326H10.5915C13.332 13.9326 13.272 18.0824 10.6455 18.0824H9.21826ZM9.59626 14.6646V17.3511H10.5915C12.2108 17.3511 12.2828 14.6646 10.5915 14.6646H9.59626Z" fill="white"/>
<path d="M14.244 14.7129V15.6661H15.7732C15.9892 15.6661 16.2052 15.8821 16.2052 16.0914C16.2052 16.2894 15.9892 16.4514 15.7732 16.4514H14.244V17.7106C14.244 17.9206 14.0947 18.0819 13.8847 18.0819C13.6207 18.0819 13.4595 17.9206 13.4595 17.7106V14.3041C13.4595 14.0889 13.6215 13.9321 13.8847 13.9321H15.99C16.254 13.9321 16.41 14.0889 16.41 14.3041C16.41 14.4961 16.254 14.7121 15.99 14.7121H14.244V14.7129Z" fill="white"/>
<path d="M18.75 20.3325H4.5V21.0825H18.75C19.1625 21.0825 19.5 20.745 19.5 20.3325V19.5825C19.5 19.995 19.1625 20.3325 18.75 20.3325Z" fill="#CAD1D8"/>
</g>
<defs>
<clipPath id="clip0">
<rect width="24" height="24" fill="white" transform="translate(0 0.0825195)"/>
</clipPath>
</defs>
</svg>
