<svg width="49" height="48" viewBox="0 0 49 48" fill="none" xmlns="http://www.w3.org/2000/svg">
<rect x="0.5" width="48" height="48" rx="24" fill="#256BF4"/>
<path d="M32.9354 15.582C32.4352 15.0686 31.6949 14.8773 31.0046 15.0787L14.908 19.7595C14.1797 19.9619 13.6635 20.5427 13.5244 21.2806C13.3824 22.0315 13.8786 22.9848 14.5268 23.3834L19.5599 26.4768C20.0761 26.7939 20.7424 26.7144 21.1696 26.2835L26.9329 20.4843C27.223 20.1823 27.7032 20.1823 27.9934 20.4843C28.2835 20.7762 28.2835 21.2493 27.9934 21.5513L22.22 27.3516C21.7918 27.7814 21.7118 28.4508 22.0269 28.9702L25.1022 34.0538C25.4623 34.6577 26.0826 35 26.7628 35C26.8429 35 26.9329 35 27.013 34.9899C27.7933 34.8893 28.4135 34.3558 28.6436 33.6008L33.4156 17.5248C33.6257 16.8403 33.4356 16.0954 32.9354 15.582Z" fill="white"/>
</svg>
