<svg width="18" height="18" viewBox="0 0 18 18" fill="none" xmlns="http://www.w3.org/2000/svg">
<path fill-rule="evenodd" clip-rule="evenodd" d="M8.99984 0.666626C13.5948 0.666626 17.3332 4.40496 17.3332 8.99996C17.3332 13.595 13.5948 17.3333 8.99984 17.3333C4.40484 17.3333 0.666504 13.595 0.666504 8.99996C0.666504 4.40496 4.40484 0.666626 8.99984 0.666626ZM8.99984 1.91663C5.094 1.91663 1.9165 5.09413 1.9165 8.99996C1.9165 12.9058 5.094 16.0833 8.99984 16.0833C12.9057 16.0833 16.0832 12.9058 16.0832 8.99996C16.0832 5.09413 12.9057 1.91663 8.99984 1.91663ZM10.6443 5.66638C10.8885 5.91138 10.8868 6.30721 10.6427 6.55054L8.18267 8.99971L10.6427 11.4497C10.8868 11.693 10.8885 12.088 10.6443 12.333C10.5227 12.4564 10.3618 12.5172 10.2018 12.5172C10.0427 12.5172 9.88267 12.4564 9.761 12.3347L6.85517 9.44304C6.73767 9.32554 6.67184 9.16638 6.67184 8.99971C6.67184 8.83388 6.73767 8.67471 6.85517 8.55721L9.761 5.66471C10.0052 5.42138 10.4002 5.42138 10.6443 5.66638Z" fill="#171717"/>
</svg>
