<svg width="84" height="28" viewBox="0 0 84 28" fill="none" xmlns="http://www.w3.org/2000/svg">
<path d="M60.8083 9.63391C60.8083 10.4347 60.7134 11.2236 60.5236 11.9647C59.4915 16.1601 55.731 19.2559 51.2469 19.2559C45.968 19.2559 41.6855 14.9409 41.6855 9.62195C41.6855 4.30299 45.968 0 51.2469 0C55.5887 0 59.2661 2.92842 60.4168 6.92064H54.699C53.9042 5.88075 52.6467 5.21139 51.2469 5.21139C48.8269 5.21139 46.8696 7.1836 46.8696 9.62195C46.8696 12.0603 48.8269 14.0325 51.2469 14.0325C52.8128 14.0325 54.1889 13.2078 54.9599 11.9647H51.2469V8.46254H60.7371C60.7845 8.84503 60.8083 9.23947 60.8083 9.63391Z" fill="#256BF4"/>
<path d="M20.4276 0V5.77317H13.6421V13.6739C11.3289 14.1999 9.02754 14.7616 6.7499 15.3832V5.77317H0V0H20.4276Z" fill="#256BF4"/>
<path d="M34.0458 16.937H26.2638L25.5402 19.2559H18.4463L25.3267 0H34.9711L41.8871 19.2559H34.7694L34.0458 16.937ZM32.4206 11.8332L30.7361 6.51424H29.5498L27.8772 11.8332H32.4206Z" fill="#256BF4"/>
<path d="M76.1591 16.937H68.3771L67.6535 19.2559H60.5596L67.44 0H77.0843L84.0003 19.2559H76.8827L76.1591 16.937ZM74.5457 11.8332L72.8612 6.51424H71.6749L69.9904 11.8332H74.5457Z" fill="#256BF4"/>
<path d="M62.5518 27.4076V21.1563L67.2138 25.0171V21.3117H68.4238V27.5869L63.7618 23.7262V27.4076H62.5518Z" fill="#272727"/>
<path d="M73.8453 21.7301C74.308 22.0647 74.6639 22.5189 74.8893 23.0807C75.0553 23.4871 75.1265 23.9174 75.1265 24.3597C75.1265 24.8019 75.0435 25.2322 74.8893 25.6386C74.6639 26.2123 74.3198 26.6546 73.8453 26.9893C73.3352 27.3598 72.7184 27.5391 72.0066 27.5391C71.2949 27.5391 70.678 27.3598 70.1679 26.9893C69.7052 26.6546 69.3494 26.2004 69.124 25.6386C68.9579 25.2322 68.8867 24.8019 68.8867 24.3597C68.8867 23.9174 68.9698 23.4871 69.124 23.0807C69.3494 22.507 69.6934 22.0647 70.1679 21.7301C70.6899 21.3595 71.2949 21.1802 72.0066 21.1802C72.7184 21.1802 73.3352 21.3715 73.8453 21.7301ZM73.1336 22.7341C72.8133 22.5189 72.4337 22.4114 71.9948 22.4114C71.5558 22.4114 71.1762 22.5189 70.8678 22.7341C70.5831 22.9373 70.3696 23.2003 70.2391 23.5469C70.1323 23.7979 70.0849 24.0728 70.0849 24.3716C70.0849 24.6704 70.1323 24.9454 70.2391 25.1964C70.3696 25.531 70.5831 25.8059 70.8678 26.0091C71.1762 26.2362 71.5558 26.3438 71.9948 26.3438C72.4337 26.3438 72.8133 26.2362 73.1336 26.0091C73.4183 25.8059 73.6318 25.543 73.7623 25.1964C73.8572 24.9334 73.9165 24.6585 73.9165 24.3716C73.9165 24.0848 73.8691 23.7979 73.7623 23.5469C73.6318 23.2003 73.4183 22.9253 73.1336 22.7341Z" fill="#272727"/>
<path d="M83.9998 21.3118L81.1647 27.6706L79.6937 24.3597L77.9261 27.6108L75.1621 21.3237H76.4789L78.0329 24.8737L79.065 22.9732L78.3295 21.3118H79.6462L81.1528 24.6944L82.6594 21.3118H83.9998Z" fill="#272727"/>
<path d="M74.2368 10.6738L75.5299 14.7019L72.2676 12.1918L68.9935 14.7019L70.2865 10.6738L67.0361 8.1757H71.0932L72.2676 4.55402L73.4301 8.1757H77.4991L74.2368 10.6738Z" fill="white"/>
<path d="M72.79 10.2674V12.0364L72.6002 12.0244C69.5871 11.8571 66.5265 11.7734 63.5015 11.7734C46.4903 11.7734 29.7402 14.4389 13.7017 19.6861L13.678 19.6981H13.6543V13.6978C26.6558 10.7455 40.0133 9.25138 53.4656 9.25138C59.8715 9.25138 66.3248 9.59801 72.6358 10.2674H72.79Z" fill="white"/>
</svg>
