<svg width="491" height="322" viewBox="0 0 491 322" fill="none" xmlns="http://www.w3.org/2000/svg">
<path fill-rule="evenodd" clip-rule="evenodd" d="M296.112 321.426C380.092 321.426 391.997 284.065 404.731 277.199C417.464 270.333 409.548 256.555 417.899 246.163C431.238 229.563 439.323 238.118 443.738 216.584C448.153 195.049 440.127 188.957 440.127 169.731C440.127 131.211 458.579 112.977 435.015 92.8227C411.451 72.6685 372.101 75.0466 333.183 75.0466C260.946 75.0466 217.671 -23.98 121.325 5.72904C88.1221 15.9674 91.7917 29.9199 99.0874 79.2276C102.255 100.639 78.3351 127.863 82.4854 152.195C90.0654 196.635 110.085 190.607 147.856 220.612C154.193 225.645 163.435 225.593 170.343 230.756C181.925 239.411 182.67 252.87 204.322 261.947C239.235 276.585 236.274 321.426 296.112 321.426Z" fill="#8C8C8C"/>
<path d="M135.423 226.77C147.106 226.77 156.577 217.941 156.577 207.05C156.577 196.159 147.106 187.33 135.423 187.33C123.74 187.33 114.269 196.159 114.269 207.05C114.269 217.941 123.74 226.77 135.423 226.77Z" fill="white"/>
<path fill-rule="evenodd" clip-rule="evenodd" d="M127.396 135.656C123.775 126.653 126.938 121.258 128.965 114.217C130.658 108.334 143.902 98.7796 149.997 108.742C151.79 111.673 151.07 114.444 154.989 117.02C164.476 123.256 159.301 110.319 159.653 107.048C159.826 105.453 158.472 101.774 158.976 100.234C159.505 98.6188 162.323 96.3238 162.323 92.9751C162.323 89.6264 156.59 88.3367 154.989 87.5139C140.767 80.2025 131.721 67.9905 136.229 61.7927C142.509 53.1576 167.123 66.744 174.518 67.9905C174.614 68.0066 175.935 61.1414 177.014 59.5695C179.172 56.4244 181.557 53.3714 184.403 50.8255C185.678 49.6851 187.406 48.9811 189.104 48.7529C194.187 48.0701 199.387 47.5102 204.478 48.1286C206.276 48.3471 216.99 36.002 221.167 32.0199C253.216 1.46758 317.464 38.6987 282.443 89.2902C276.006 98.5888 267.776 101.546 266.713 104.832C264.351 112.132 279.216 111.172 285.512 111.952C296.269 113.284 301.57 118.786 294.893 128.215C290.733 134.09 266.329 133.79 255.64 129.542C251.672 127.965 246.768 121.072 243.019 126.727C240.435 130.623 230.361 138.89 219.554 143.566C214.676 145.677 209.121 144.405 204.958 146.29C199.099 148.943 181.803 160.083 174.518 160.08C167.182 160.078 157.688 151.287 156.59 150.71C154.916 149.831 141.965 147.313 135.567 137.483C133.633 134.51 128.721 138.951 127.396 135.656Z" fill="white"/>
<path d="M251.951 85.503C253.139 85.503 254.102 84.5398 254.102 83.3517C254.102 82.1636 253.139 81.2004 251.951 81.2004C250.763 81.2004 249.8 82.1636 249.8 83.3517C249.8 84.5398 250.763 85.503 251.951 85.503Z" fill="#E9B16F"/>
<path d="M235.458 81.2004C236.646 81.2004 237.609 80.2372 237.609 79.0491C237.609 77.861 236.646 76.8978 235.458 76.8978C234.27 76.8978 233.307 77.861 233.307 79.0491C233.307 80.2372 234.27 81.2004 235.458 81.2004Z" fill="#E9B16F"/>
<path d="M394.294 106.299C410.73 106.299 424.053 93.1354 424.053 76.8978C424.053 60.6602 410.73 47.497 394.294 47.497C377.858 47.497 364.535 60.6602 364.535 76.8978C364.535 93.1354 377.858 106.299 394.294 106.299Z" fill="white"/>
<path d="M301.789 318.558C349.512 318.558 388.199 285.65 388.199 245.056C388.199 204.462 349.512 171.554 301.789 171.554C254.066 171.554 215.379 204.462 215.379 245.056C215.379 285.65 254.066 318.558 301.789 318.558Z" fill="white"/>
<path fill-rule="evenodd" clip-rule="evenodd" d="M228.722 285.204L229.689 285.904C227.507 287.861 224.226 285.427 222.386 283.146C219.427 279.478 216.425 275.579 215.524 270.953C215.012 268.321 215.217 265.609 215.424 262.935L216.259 252.155C216.629 247.378 217 242.592 217.826 237.873C220.065 225.1 225.698 212.938 233.994 202.971L234.077 202.871C235.542 201.112 237.142 199.191 237.113 196.91C237.054 192.084 239.833 187.574 243.481 184.415C247.13 181.256 251.598 179.229 255.998 177.245C257.991 176.346 260.593 175.541 262.138 177.088C265.315 180.271 270.617 178.243 274.814 176.627C279.966 174.642 285.47 173.573 290.99 173.484C291.151 173.481 291.313 173.479 291.476 173.476C294.79 173.429 298.521 173.376 300.544 170.808C301.831 169.173 304.293 169.267 306.36 169.515L320.572 171.215C321.658 171.345 322.96 171.641 323.302 172.68C324.221 175.465 327.459 176.602 330.267 177.449C340.25 180.459 350.007 184.545 358.482 190.619C366.957 196.692 374.12 204.862 377.921 214.571C371.741 206.124 365.402 197.519 356.825 191.521C354.371 189.804 351.76 188.322 349.111 186.925C342.857 183.629 336.349 180.787 329.588 178.723C298.2 169.143 261.892 178.028 238.476 201.02C235.081 204.354 231.898 208.026 229.972 212.378L232.516 213.166C228.484 214.968 225.49 218.916 224.842 223.285C226.464 220.506 228.777 218.133 231.513 216.44C230.73 219.056 228.693 221.158 226.696 223.219C224.151 225.846 221.671 228.405 221.935 231.875C223.143 228.704 226.186 226.311 229.553 225.884C224.213 231.101 218.484 237.224 218.654 244.687C220.601 240.378 223.909 236.695 227.985 234.296L222.117 242.181C219.897 245.164 217.561 248.571 218.068 252.254C219.998 248.789 222.758 245.79 226.052 243.58C224.466 247.187 222.202 250.494 219.413 253.276C222.065 252.956 224.618 251.857 226.675 250.152C225.813 251.356 225.036 252.714 225.007 254.194C224.978 255.674 225.937 257.262 227.402 257.475C227.845 256.483 229.236 256.064 230.153 256.646C227.373 259.351 227.345 264.363 230.093 267.1C230.338 265.814 231.423 264.73 232.709 264.487C230.659 268.072 230.29 272.574 231.73 276.445C232.166 274.251 233.383 272.222 235.112 270.804C234.115 276.007 231.911 280.974 228.722 285.204ZM227.508 283.547C229.244 283.529 230.324 281.587 230.505 279.86C230.721 277.795 230.208 275.73 229.699 273.717L226.679 261.773C226.111 261.953 226.045 262.572 225.976 263.219C225.917 263.772 225.856 264.346 225.478 264.687C224.713 263.736 224.626 262.297 225.271 261.262C225.922 260.216 225.496 258.752 224.573 257.937C223.65 257.122 222.365 256.846 221.134 256.805C220.469 256.783 219.762 256.835 219.218 257.217C218.673 257.6 218.387 258.415 218.774 258.956C219.924 260.569 220.79 262.384 221.319 264.293C221.358 264.436 221.397 264.581 221.435 264.726C221.698 265.717 221.968 266.736 222.694 267.443C223.254 267.989 223.397 268.823 223.511 269.597L224.434 275.873C224.601 277.015 224.769 278.18 224.577 279.319C224.385 280.457 223.77 281.586 222.737 282.103L226.035 283.225C226.513 283.387 227.003 283.552 227.508 283.547ZM263.449 180.68C262.799 180.818 262.255 180.247 261.789 179.759L261.736 179.703C261.259 179.205 260.439 178.771 259.937 179.243C254.085 184.749 247.425 189.395 240.237 192.986C238.933 193.638 238.757 195.395 238.757 196.854C238.756 197.341 239.223 198.024 239.527 197.644C241.009 195.787 242.936 194.345 244.841 192.925C250.201 188.929 255.625 184.895 261.769 182.261C262.515 181.941 263.388 181.489 263.449 180.68ZM322.269 174.488C321.937 173.71 320.994 173.429 320.163 173.273C317.898 172.846 315.592 172.652 313.289 172.459C310.126 172.194 306.967 171.929 303.923 171.06C302.948 170.782 302.114 171.77 301.579 172.632C303.183 172.465 304.798 172.396 306.41 172.426C309.217 172.477 312.009 172.827 314.794 173.176C316.21 173.354 317.635 173.533 318.992 173.972C319.15 174.023 319.31 174.078 319.47 174.133C320.397 174.451 321.355 174.78 322.269 174.488ZM292.307 186.451C292.948 186.597 293.559 187.077 293.655 187.728C293.751 188.377 293.307 189.01 292.74 189.341C292.173 189.671 291.503 189.764 290.852 189.85L288.894 190.109C288.698 190.135 288.495 190.164 288.325 190.264C287.833 190.556 287.867 191.346 288.269 191.752C288.672 192.159 289.289 192.26 289.861 192.259C292.526 192.254 295.048 190.337 295.861 187.8C296.055 187.197 296.157 186.527 295.918 185.942C295.796 185.644 295.593 185.387 295.368 185.158C294.32 184.096 292.759 183.628 291.271 183.733C289.782 183.839 288.367 184.472 287.156 185.344C286.576 185.761 286.022 186.25 285.693 186.885C285.363 187.52 285.292 188.325 285.661 188.938C285.802 189.171 286.019 189.378 286.288 189.422C286.558 189.466 286.868 189.292 286.902 189.022C286.995 188.269 287.544 187.634 288.198 187.251C288.853 186.869 289.607 186.7 290.351 186.552C290.996 186.423 291.665 186.304 292.307 186.451ZM239.8 223.668C240.533 219.337 244.03 215.817 248.108 214.186C250.355 213.287 252.926 212.893 255.186 213.759C255.743 213.972 256.283 214.268 256.685 214.709C257.062 215.124 257.3 215.648 257.479 216.18C258.627 219.585 257.462 223.523 254.996 226.136C252.529 228.749 248.938 230.12 245.354 230.377C244.206 230.46 242.973 230.413 242.024 229.761C241.076 229.108 240.605 227.658 241.336 226.768C241.681 226.785 241.867 227.093 242.057 227.408C242.152 227.564 242.247 227.722 242.364 227.848C242.762 228.276 243.42 228.307 244.004 228.283C246.546 228.176 249.126 227.546 251.194 226.065C253.263 224.585 254.749 222.167 254.706 219.624C254.692 218.804 254.513 217.966 254.049 217.291C253.287 216.182 251.846 215.682 250.504 215.77C249.161 215.859 247.903 216.454 246.76 217.164C245.256 218.097 243.866 219.271 242.923 220.769C241.98 222.267 241.519 224.119 241.918 225.844C241.565 226.48 240.518 226.353 240.085 225.769C239.652 225.185 239.679 224.384 239.8 223.668ZM263.206 259.357C261.347 260.553 259.805 262.426 259.518 264.618C259.286 266.392 259.881 268.158 260.467 269.849C260.924 271.168 261.396 272.515 262.267 273.606C263.84 275.577 266.444 276.393 268.934 276.793C269.612 276.902 270.641 276.596 270.399 275.953C267.77 275.905 265.185 274.687 263.475 272.69C261.764 270.694 260.956 267.953 261.311 265.348C261.386 264.8 261.511 264.255 261.741 263.752C262.206 262.734 263.075 261.952 264.014 261.345C266.037 260.038 268.5 259.425 270.899 259.632C273.212 259.832 275.523 260.846 276.936 262.689C278.348 264.533 278.684 267.252 277.438 269.211C277.236 269.53 277.088 270.093 277.459 270.159C279.465 269.078 280.579 266.695 280.467 264.419C280.354 262.143 279.152 260.013 277.501 258.442C276.587 257.574 275.506 256.84 274.28 256.545C272.665 256.156 270.975 256.557 269.368 256.98C267.229 257.542 265.065 258.161 263.206 259.357ZM354.524 262.184C347.8 259.674 340.494 258.738 333.354 259.473C330.361 259.781 327.358 260.392 324.667 261.739C319.588 264.28 315.958 269.512 315.354 275.158C314.75 280.805 317.191 286.686 321.617 290.244C323.295 291.594 325.2 292.604 327.107 293.616C328.409 294.306 329.713 294.998 330.946 295.798C331.298 296.134 330.506 296.47 330.042 296.321C325.729 294.929 321.541 292.811 318.465 289.484C314.723 285.435 312.898 279.687 313.619 274.221C314.341 268.756 317.596 263.678 322.261 260.74C325.951 258.416 330.363 257.437 334.721 257.28C339.079 257.123 343.424 257.745 347.733 258.413C350.424 258.83 353.58 259.63 354.524 262.184ZM283.776 270.609C283.471 269.909 282.243 269.727 282.019 270.457C280.593 275.098 276.064 278.607 271.213 278.83C270.117 278.88 269.019 278.778 267.927 278.673C265.574 278.445 263.147 278.176 261.087 277.017C258.124 275.352 256.341 271.931 256.32 268.532C256.299 265.133 257.912 261.829 260.36 259.471C260.02 258.52 258.561 258.979 257.836 259.684C253.821 263.586 253.132 270.322 255.95 275.161C258.767 280 264.671 282.712 270.237 282.097C275.802 281.482 280.827 277.756 283.414 272.79C283.767 272.113 284.081 271.308 283.776 270.609ZM248.924 294.112C248.018 297.589 247.932 301.277 248.675 304.792C249.008 306.369 249.045 307.238 249.052 307.4V307.413L249.053 307.426C249.053 307.428 249.053 307.428 249.053 307.428C249.054 307.428 249.054 307.425 249.054 307.419L249.055 307.4C249.062 307.237 249.102 306.365 249.443 304.786C250.203 301.264 250.022 297.544 248.924 294.112ZM253.741 296.215C252.453 298.915 252.612 302.256 254.152 304.82C254.498 305.396 254.76 305.865 254.954 306.21C255.214 306.675 255.35 306.918 255.397 306.901C255.449 306.884 255.394 306.558 255.28 305.877C255.234 305.603 255.178 305.273 255.116 304.882L253.741 296.215ZM257.368 299.663C256.821 301.387 257.223 303.38 258.395 304.756C259.592 306.162 259.983 306.613 259.619 304.803C259.247 302.955 258.473 301.189 257.368 299.663ZM362.317 280.056C360.673 286.657 355.42 291.66 350.327 296.17C350.56 296.672 351.312 296.492 351.794 296.221C356.953 293.317 361.127 288.585 363.032 282.98C364.936 277.375 364.463 270.935 361.456 265.836C361.204 265.408 360.883 264.952 360.395 264.857C359.907 264.761 359.346 265.327 359.632 265.733C362.522 269.825 363.528 275.194 362.317 280.056ZM288.148 220.448C288.136 219.404 288.151 218.274 288.781 217.441C289.649 216.295 291.297 216.174 292.735 216.154C293.376 216.145 294.026 216.137 294.65 216.286C295.98 216.602 297.039 217.583 297.982 218.572C298.191 218.791 298.414 219.06 298.362 219.358C298.298 219.728 297.835 219.898 297.467 219.823C297.223 219.772 297.003 219.651 296.783 219.529C296.673 219.468 296.562 219.406 296.447 219.354C295.125 218.747 293.572 219.412 292.384 220.252C292.197 220.384 291.996 220.554 291.992 220.782C291.987 221.012 292.184 221.19 292.369 221.326C293.974 222.501 296.028 223.045 298.004 222.819C298.477 222.764 299.032 222.591 299.154 222.132C299.202 221.952 299.184 221.741 299.166 221.536C299.136 221.195 299.107 220.874 299.394 220.755C299.544 220.694 299.713 220.738 299.869 220.783C300.938 221.095 302.189 221.595 302.396 222.689C302.456 223.005 302.413 223.335 302.313 223.641C302.018 224.535 301.197 225.234 300.267 225.382C299.854 225.448 299.432 225.412 299.015 225.376C297.927 225.283 296.837 225.189 295.758 225.015C293.778 224.696 291.841 224.106 290.019 223.267C289.387 222.975 288.73 222.617 288.409 221.999C288.166 221.529 288.154 220.977 288.148 220.448ZM328.828 194.695C328.191 192.975 326.653 191.617 324.867 191.199C324.314 191.07 323.69 191.038 323.221 191.358C322.753 191.678 322.591 192.459 323.038 192.809C323.472 193.148 323.21 193.947 322.68 194.098C322.151 194.249 321.581 193.889 321.317 193.406C321.052 192.924 321.024 192.35 321.021 191.8C321.017 191.065 321.084 190.245 321.627 189.75C321.833 189.562 322.091 189.44 322.347 189.326C323.404 188.853 324.573 188.452 325.703 188.706C326.779 188.948 327.638 189.743 328.388 190.551C329.004 191.214 329.586 191.909 330.132 192.63C330.613 193.266 331.076 193.944 331.256 194.721C331.437 195.497 331.281 196.398 330.681 196.924C330.094 197.438 329.191 197.481 328.478 197.164C327.848 196.883 327.31 196.266 327.357 195.578C327.404 194.891 328.249 194.32 328.828 194.695ZM334.509 243.068C336.088 243.023 337.559 241.807 337.9 240.265C338.107 239.327 337.851 238.211 337.034 237.707C336.437 237.338 335.686 237.365 334.986 237.41C334.016 237.472 333.01 237.557 332.168 238.041C331.325 238.525 330.699 239.528 330.963 240.463C331.392 241.984 332.93 243.114 334.509 243.068ZM334.711 240.79C334.406 240.872 333.971 240.794 333.943 240.479C333.932 240.348 334.002 240.224 334.083 240.12C334.532 239.539 335.386 239.313 336.063 239.597C335.828 240.174 335.313 240.628 334.711 240.79ZM335.527 217.426C335.27 216.833 335.768 216.141 336.373 215.914C336.858 215.732 337.385 215.751 337.907 215.769C338.037 215.774 338.167 215.779 338.296 215.78C338.943 215.788 339.657 215.681 340.077 215.188C340.225 215.015 340.325 214.76 340.212 214.561C340.095 214.354 339.816 214.318 339.578 214.306C337.93 214.221 335.983 214.271 335.033 215.621C334.829 215.911 334.329 215.813 334.138 215.514C333.947 215.215 333.991 214.823 334.099 214.485C334.489 213.275 335.606 212.396 336.827 212.043C338.047 211.69 339.358 211.802 340.597 212.082C341.015 212.177 341.448 212.301 341.753 212.602C341.995 212.841 342.131 213.167 342.219 213.495C342.641 215.064 342.018 216.862 340.715 217.833C339.413 218.804 337.512 218.887 336.129 218.035C335.882 217.882 335.642 217.692 335.527 217.426ZM329.877 245.153C330.642 246.07 331.549 246.904 332.649 247.371C334.872 248.315 337.713 247.443 339.025 245.415C339.502 244.677 339.716 243.55 339.01 243.026C337.878 245.403 334.598 246.453 332.297 245.174C331.856 244.929 331.455 244.616 331.091 244.267C329.436 242.683 328.573 240.095 329.544 238.02C329.86 237.343 330.346 236.759 330.878 236.235C332.037 235.09 333.696 234.154 335.243 234.662C335.307 234.684 335.371 234.707 335.435 234.731C335.652 234.811 335.87 234.891 336.097 234.877C336.393 234.86 336.701 234.596 336.625 234.31C336.603 234.225 336.55 234.152 336.496 234.083C335.54 232.865 333.663 232.489 332.311 233.244C330.701 234.143 329.066 235.202 328.21 236.835C326.817 239.492 327.954 242.849 329.877 245.153ZM355.51 204.16C355.44 204.262 355.457 204.403 355.474 204.538C355.494 204.699 355.513 204.85 355.381 204.915C354.9 205.153 354.323 205.129 353.81 204.971C352.408 204.541 351.468 203.255 350.675 202.021C350.212 201.3 349.75 200.534 349.675 199.68C349.6 198.826 350.037 197.864 350.86 197.623C351.777 197.353 352.676 198.035 353.39 198.671C354.196 199.388 355.019 200.127 355.517 201.084C356.016 202.04 356.127 203.276 355.51 204.16ZM352.462 200.96C352.66 201.152 352.768 201.41 352.877 201.669C352.983 201.923 353.09 202.178 353.282 202.369C353.526 202.612 353.896 202.721 354.232 202.649C353.602 201.673 352.872 200.763 352.057 199.936C351.839 200.001 351.82 200.325 351.952 200.511C352.031 200.624 352.142 200.707 352.254 200.79C352.326 200.844 352.398 200.898 352.462 200.96ZM232.474 289.08C232.396 290.36 232.494 291.843 233.519 292.615C233.86 292.424 233.837 291.936 233.794 291.547C233.53 289.155 234.272 286.849 235.019 284.528C235.554 282.866 236.091 281.197 236.264 279.482C236.314 278.984 236.181 278.304 235.681 278.285C235.307 278.27 235.066 278.665 234.915 279.008C233.515 282.186 232.685 285.614 232.474 289.08ZM331.846 242.917C333.002 243.428 334.283 243.949 335.493 243.582C335.974 243.436 336.402 243.158 336.824 242.884C336.822 243.591 336.214 244.185 335.536 244.387C334.859 244.589 334.13 244.48 333.439 244.331C332.672 244.165 331.733 243.694 331.846 242.917ZM240.416 301.92C240.711 301.394 240.761 300.771 240.805 300.17L241.154 295.385C241.325 293.036 241.496 290.679 241.343 288.329C241.324 288.033 241.293 287.721 241.121 287.479C240.948 287.238 240.582 287.109 240.346 287.288C240.171 287.42 240.127 287.659 240.097 287.875C239.718 290.592 239.516 293.334 239.492 296.077C239.474 298.066 239.565 300.122 240.416 301.92ZM235.186 297.807C234.879 298.066 234.369 297.838 234.2 297.474C234.031 297.11 234.099 296.685 234.171 296.29C234.929 292.16 235.788 288.049 236.748 283.961C236.772 283.859 236.798 283.753 236.864 283.671C237.117 283.358 237.627 283.673 237.807 284.032C238.247 284.914 238.036 285.966 237.816 286.927L235.45 297.244C235.403 297.45 235.347 297.671 235.186 297.807ZM243.379 297.99C243.247 299.539 243.479 301.094 243.711 302.631C243.793 303.178 244.187 303.906 244.682 303.657L245.646 293.35C245.685 292.931 245.711 292.466 245.451 292.135C245.191 291.804 244.533 291.817 244.45 292.23L243.739 295.764C243.591 296.501 243.443 297.241 243.379 297.99ZM342.906 266.402C340.162 264.989 336.822 264.432 333.972 265.616C331.843 266.5 325.826 270.318 325.025 275.212C324.489 278.489 324.494 281.836 325.641 285L325.826 285.496C326.167 286.392 327.255 287.422 327.863 286.681C326.087 283.47 325.755 279.494 326.975 276.033C328.194 272.572 330.944 269.682 334.341 268.293C335.055 268 335.802 267.771 336.571 267.698C338.125 267.551 339.677 268.054 341.067 268.766C344.059 270.299 347.766 272.849 349.19 275.894C350.563 278.83 351.574 282.332 350.332 285.325C349.089 288.319 340.927 290.485 340.927 290.485L341.83 292.133C341.83 292.133 346.399 291.232 349.19 289.199C360.905 280.667 345.531 267.753 342.906 266.402Z" fill="#171717"/>
<path fill-rule="evenodd" clip-rule="evenodd" d="M135.813 224.272C131.669 224.716 127.281 223.758 124.046 221.131C121.755 219.271 120.145 216.683 119.015 213.957C117.789 210.996 117.084 207.821 116.942 204.62C116.888 203.415 116.917 202.188 117.271 201.035C117.854 199.137 119.258 197.614 120.691 196.239C123.739 193.316 127.322 190.648 131.501 190.034C134.348 189.615 137.245 190.186 140.032 190.903C142.221 191.466 144.407 192.131 146.376 193.241C150.727 195.694 153.742 200.373 154.178 205.348C154.614 210.324 154.078 213.621 147.363 219.803C143.874 222.081 139.956 223.827 135.813 224.272ZM143.119 208.653C142.447 208.864 141.777 209.24 141.084 209.118C139.666 208.868 139.413 206.924 139.727 205.519C140.628 201.5 143.43 197.95 147.131 196.14C146.293 194.62 144.068 194.508 142.494 195.239C140.92 195.969 139.69 197.285 138.168 198.118C137.41 198.533 136.513 198.826 135.689 198.568C134.333 198.143 133.815 196.367 134.259 195.018C134.703 193.668 135.811 192.661 136.875 191.719C133.02 191.854 129.206 193.011 125.926 195.04C123.358 196.628 120.923 199.232 121.264 202.232C123.387 200.523 125.879 199.276 128.52 198.601C129.08 198.458 129.783 198.386 130.133 198.846C130.399 199.194 130.323 199.695 130.152 200.099C129.308 202.1 126.826 202.772 125.287 204.304C125.085 204.506 124.891 204.738 124.842 205.019C124.746 205.57 125.271 206.072 125.822 206.164C126.374 206.256 126.927 206.055 127.45 205.858C128.537 205.448 129.623 205.038 130.709 204.629C131.495 204.332 132.429 204.049 133.128 204.515C133.852 204.997 133.92 206.094 133.511 206.861C133.102 207.629 132.352 208.143 131.629 208.627C129.889 209.794 128.148 210.961 126.407 212.128C124.949 213.105 123.316 214.422 123.455 216.171C123.585 217.817 125.397 218.936 127.045 218.831C128.693 218.725 130.144 217.717 131.36 216.6C132.576 215.483 133.674 214.207 135.087 213.351C136.009 212.793 137.324 212.483 138.073 213.258C138.652 213.857 138.596 214.82 138.379 215.623C137.753 217.94 136.061 219.946 133.882 220.953C135.655 221.362 137.503 221.439 139.303 221.179C140.33 221.031 141.393 220.746 142.136 220.022C142.878 219.297 143.166 218.022 142.522 217.209C141.561 215.996 141.599 214.221 142.213 212.8C142.827 211.38 143.923 210.233 144.997 209.119C144.69 208.485 143.791 208.442 143.119 208.653ZM151.325 211.407C152.29 209.176 152.325 206.653 152.081 204.234C151.81 201.559 150.878 198.501 148.358 197.564C144.666 199.096 141.816 202.516 140.974 206.424C140.904 206.752 140.848 207.105 140.977 207.415C141.107 207.725 141.491 207.952 141.788 207.796C142.809 207.261 144.065 206.957 145.102 207.459C146.14 207.96 146.646 209.524 145.805 210.313C144.877 211.184 143.923 212.091 143.422 213.261C142.921 214.432 142.993 215.947 143.937 216.803C144.645 217.446 144.647 218.708 143.94 219.353C145.95 218.766 147.382 217.038 148.685 215.4C149.681 214.147 150.689 212.875 151.325 211.407ZM128.189 199.87C126.099 200.737 124.069 201.751 122.121 202.904C121.658 203.178 121.19 203.468 120.851 203.886C120.394 204.451 120.22 205.188 120.079 205.901C119.622 208.205 119.387 210.684 120.354 212.824C120.663 213.507 121.085 214.131 121.505 214.752C121.629 214.935 121.769 215.131 121.982 215.193C122.194 215.255 122.475 215.083 122.425 214.868C122.271 214.204 122.774 213.579 123.271 213.112C126.178 210.375 130.094 208.804 132.709 205.787C132.312 205.317 131.56 205.538 130.995 205.779C129.648 206.354 128.259 206.831 126.843 207.205C126.112 207.397 125.298 207.554 124.632 207.199C123.656 206.678 123.497 205.255 124.013 204.277C124.528 203.299 125.508 202.668 126.452 202.093C127.397 201.519 128.389 200.92 128.955 199.97C128.852 199.7 128.456 199.759 128.189 199.87ZM135.344 218.202C136.268 217.459 137.266 216.584 137.367 215.403C137.419 214.785 137.023 214.03 136.406 214.089C136.217 214.107 136.044 214.201 135.88 214.299C133.194 215.904 131.425 219.042 128.395 219.822C129.251 220.206 130.144 220.507 131.058 220.722C131.33 220.786 131.613 220.842 131.886 220.785C132.205 220.719 132.471 220.51 132.725 220.306C133.598 219.604 134.471 218.903 135.344 218.202ZM137.842 192.545C137.245 193.206 136.647 193.867 136.049 194.528C135.575 195.052 135.067 195.743 135.331 196.398C135.525 196.881 136.099 197.125 136.617 197.084C137.136 197.044 137.608 196.779 138.043 196.494C139.593 195.477 140.988 194.091 142.797 193.685C141.543 193.228 140.289 192.771 139.035 192.314C138.774 192.219 138.483 192.124 138.226 192.23C138.071 192.293 137.954 192.421 137.842 192.545Z" fill="#171717"/>
<path fill-rule="evenodd" clip-rule="evenodd" d="M161.179 113.562C161.023 116.695 158.606 120.088 155.49 119.717C154.084 118.091 152.984 116.073 151.896 114.078C149.808 110.247 147.766 106.504 143.7 105.793C139.706 105.095 135.986 108.033 133.498 111.235C129.895 115.872 127.567 121.49 126.833 127.316C126.402 130.742 127.806 135.492 131.238 135.115C135.158 134.685 137.946 137.768 140.782 140.904C143.406 143.807 146.071 146.755 149.713 147.004C154.049 147.3 157.59 149.897 161.175 152.527C163.57 154.283 165.984 156.053 168.666 157.162C173.713 159.247 179.533 158.844 184.684 157.033C189.836 155.222 194.42 152.103 198.759 148.788L198.987 148.614C201.356 146.803 203.835 144.906 206.78 144.507C221.841 142.467 235.849 133.634 244.18 120.922C255.991 130.364 272.506 133.591 287.003 129.29C289.462 128.561 291.938 127.582 293.762 125.778C295.586 123.974 296.62 121.172 295.724 118.768C294.743 116.139 291.813 114.732 289.028 114.393C287.501 114.207 285.962 114.262 284.423 114.317H284.422C283.153 114.362 281.883 114.408 280.618 114.318C272.96 113.777 266.584 108.495 260.786 103.464C269.187 100.887 275.998 94.4144 280.496 86.8652C284.994 79.3161 287.404 70.7161 289.235 62.1216C290.199 57.5988 290.915 52.5037 288.331 48.6687C287.174 46.9522 285.479 45.6973 283.789 44.4467C281.886 43.0385 279.991 41.6358 278.881 39.5861C276.748 35.6433 272.589 33.3052 268.644 31.1754C258.32 25.6016 246.462 19.865 235.336 23.5874C231.002 25.0373 227.259 27.8157 223.609 30.5655C217.547 35.1317 211.054 40.488 209.9 47.9886C199.982 43.5515 187.151 47.0951 180.916 55.9932C179.49 58.0285 178.395 60.2729 177.302 62.5151C176.014 65.1548 174.728 67.7913 172.905 70.0795C165.581 66.7429 158.12 63.71 150.546 60.9913C147.187 59.7859 143.176 58.7207 140.282 60.8074C137.961 62.4806 137.25 65.7647 137.931 68.5432C138.612 71.3217 140.43 73.6772 142.38 75.7704C146.611 80.3115 151.693 84.057 157.282 86.7539C157.463 86.8409 157.644 86.9275 157.827 87.0143C159.577 87.848 161.376 88.7051 162.541 90.2356C163.828 91.9255 163.908 94.7529 162.104 95.8742C159.44 97.5303 158.949 101.246 159.495 104.336C159.682 105.391 159.956 106.437 160.229 107.481C160.756 109.493 161.282 111.499 161.179 113.562ZM233.517 130.082C226.803 137.131 217.355 141.255 207.695 142.461C198.035 143.667 188.17 142.099 178.942 138.998C181.425 138.997 183.219 135.747 181.899 133.645C176.813 139.573 169.06 142.35 161.672 144.886C154.997 147.176 147.019 145.513 142.116 140.437C137.213 135.362 135.886 127.034 139.334 120.877C140.833 118.2 143.375 115.871 146.431 115.608C149.487 115.345 152.778 117.879 152.494 120.934C150.794 120.638 149.004 122.083 148.934 123.807C155.513 123.099 161.698 119.329 165.343 113.806C166.601 111.9 167.557 109.823 168.514 107.745C169.156 106.35 169.799 104.954 170.534 103.608C172.363 100.257 174.99 97.0632 178.629 95.912C181.551 94.988 184.708 95.5007 187.728 96.0213L201.14 98.3339C202.144 97.4674 200.519 96.0785 199.22 95.8073C195.028 94.9314 190.778 94.3916 186.527 93.8518C182.585 93.3512 178.643 92.8505 174.747 92.0819C166.649 90.4842 158.51 87.5619 152.616 81.7837C156.614 79.4837 159.656 75.5755 160.904 71.1352C161.156 70.2369 160.555 68.7612 159.825 69.343C158.992 72.2256 158.088 75.232 156 77.3867C153.912 79.5415 150.246 80.4879 147.883 78.6393C144.814 76.2396 141.588 73.6218 140.375 69.9203C139.162 66.2188 141.081 61.2477 144.95 60.7939C146.686 60.5902 148.384 61.3078 149.985 62.0097L166.141 69.0914C170.949 71.1991 175.829 73.3279 181.023 74.0927C184.67 74.6297 188.379 74.479 192.062 74.3271L202.503 73.8964C202.93 73.8788 203.368 73.8588 203.761 73.6911C204.81 73.2436 205.166 71.9624 205.397 70.8456C208.199 57.3252 211.963 43.057 222.148 33.7332C226.705 29.5611 232.382 26.6237 238.42 25.3133C244.371 24.0215 250.938 24.4013 256.062 27.693C247.466 28.3257 239.12 31.9504 232.79 37.7997C230.13 34.9605 225.18 37.2812 223.059 40.5423C219.77 45.5975 219.83 52.6199 223.204 57.6184C226.044 61.8258 227.097 66.8461 228.153 71.878C229.123 76.5025 230.095 81.1369 232.458 85.1593C236.197 91.5227 243.159 95.6073 250.429 96.8736C257.7 98.1398 265.238 96.8173 272.148 94.2258C264.414 101.94 252.059 104.608 241.83 100.773C241.085 100.494 240.343 100.182 239.601 99.8689V99.8688V99.8687C237.25 98.8791 234.892 97.8861 232.371 97.9156C233.848 99.4795 235.734 100.654 237.79 101.288C235.42 105.269 232.933 109.18 230.335 113.015C230.002 113.506 229.624 114.028 229.055 114.194C228.421 114.379 227.759 114.063 227.181 113.744C222.403 111.103 218.121 107.57 214.621 103.38L207.619 111.897C211.212 116.289 215.413 120.183 220.064 123.434C213.874 131.082 204.495 136.063 194.692 136.91C204.839 137.426 215.112 132.667 221.278 124.592C225.182 126.783 229.284 128.623 233.517 130.082ZM265.607 55.1912C267.85 52.7463 268.68 49.254 268.489 45.942C268.297 42.6301 267.183 39.445 265.95 36.3651C269.162 35.9843 272.425 37.1961 274.984 39.1748C277.542 41.1536 279.464 43.846 281.04 46.6703C282.951 50.0939 284.416 53.7958 285.052 57.6647C286.549 66.7744 283.353 76.0628 278.804 84.096C277.921 85.6559 276.97 87.205 275.681 88.4503C274.383 89.7043 272.785 90.6057 271.148 91.3663C264.394 94.5047 256.624 95.4104 249.328 93.9096C253.985 90.0321 257.274 84.6902 259.369 79.0036C261.464 73.3171 262.422 67.2732 262.974 61.2383L262.978 61.2044C263.117 59.6827 263.263 58.0833 264.13 56.8267C264.417 56.4106 264.773 56.0499 265.128 55.689L265.129 55.6888V55.6886V55.6885V55.6883C265.291 55.5244 265.452 55.3604 265.607 55.1912ZM257.179 80.3268C255.17 85.0275 252.056 89.3439 247.835 92.2287C247.341 92.5665 246.81 92.8924 246.216 92.9619C245.691 93.0233 245.165 92.8786 244.661 92.7195C241.073 91.5869 237.682 89.579 235.38 86.6024C234.544 85.5222 233.862 84.3308 233.254 83.1083C228.823 74.2047 228.389 63.4024 232.091 54.172C232.268 53.7311 232.521 53.2361 232.987 53.1436C233.59 53.024 234.052 53.6406 234.391 54.1533C237.156 58.3442 242.328 60.466 247.345 60.6857C252.361 60.9054 257.296 59.4797 262.052 57.8718C261.186 59.9918 260.965 62.3013 260.746 64.5891C260.718 64.8772 260.691 65.1649 260.662 65.4518C260.152 70.5387 259.189 75.626 257.179 80.3268ZM256.158 36.6565C258.725 36.073 261.72 35.9124 263.681 37.6682C264.315 38.2354 264.785 38.9627 265.173 39.7197C267.602 44.4671 266.65 50.7198 262.919 54.5297C258.605 58.9341 251.777 59.6602 245.635 59.1374C243.43 58.9498 241.164 58.6107 239.282 57.4475C236.847 55.9425 235.405 53.2906 234.072 50.7578C239.991 44.1438 247.503 38.624 256.158 36.6565ZM276.919 116.499C276.113 118.533 275.3 120.594 275.036 122.765C274.773 124.936 275.116 127.266 276.437 129.01C265.479 129.616 254.343 126.237 245.57 119.644C248.399 115.64 250.633 111.217 252.176 106.564C252.786 104.726 255.113 103.959 257.002 104.384C258.742 104.776 260.202 105.892 261.626 106.98C261.749 107.074 261.872 107.168 261.994 107.261C266.658 110.802 271.798 113.657 276.919 116.499ZM200.347 144.268C198.618 146.214 196.553 147.829 194.443 149.352C190.039 152.532 185.237 155.422 179.884 156.346C172.04 157.7 163.565 154.317 158.81 147.933L175.92 141.55C176.329 141.398 176.754 141.242 177.19 141.267C177.437 141.281 177.674 141.352 177.912 141.423C178.07 141.47 178.228 141.517 178.39 141.548C178.939 141.652 179.493 141.56 180.05 141.469C180.396 141.412 180.743 141.354 181.091 141.344C182.372 141.306 183.549 141.891 184.713 142.47H184.714C185.009 142.617 185.304 142.764 185.599 142.899C190.136 144.986 195.367 144.648 200.347 144.268ZM175.642 71.0634C175.522 70.7937 175.649 70.4833 175.776 70.2167C179.28 62.8783 183.915 56.0815 189.468 50.1402C193.373 55.5632 195.973 61.9201 196.986 68.5258C197.188 69.8463 196.969 71.6724 195.644 71.8376C189.29 72.6296 182.825 72.5219 176.501 71.519C176.166 71.4659 175.78 71.3724 175.642 71.0634ZM199.573 70.6107C198.265 63.4183 195.549 56.4847 191.624 50.3172C194.946 48.5682 198.873 48.5397 202.628 48.5514C204.999 48.5588 207.587 48.6424 209.394 50.1776L204.707 64.0073C203.911 66.3551 203.105 68.7688 203.206 71.2457L200.243 71.2932C200.137 71.2949 200.028 71.296 199.931 71.2553C199.694 71.1563 199.619 70.8634 199.573 70.6107ZM237.695 106.002C238.482 104.663 239.231 103.233 239.311 101.682C242.856 103.277 246.759 104.067 250.645 103.976C251.255 103.962 251.233 104.902 250.983 105.459C250.227 107.143 249.469 108.828 248.594 110.454C247.695 112.122 246.675 113.721 245.656 115.319L243.213 119.148C242.878 119.672 242.533 120.208 242.036 120.581C240.703 121.584 238.8 121.102 237.278 120.418C234.754 119.284 232.43 117.705 230.447 115.775C233.201 112.787 235.636 109.505 237.695 106.002ZM146.029 109.311C147.204 110.495 147.971 112.013 148.719 113.503L145.196 114.006C144.022 114.173 142.818 114.35 141.781 114.924C140.771 115.483 139.993 116.378 139.307 117.306C136.442 121.189 134.854 125.998 134.843 130.823C134.84 132.566 132.78 133.809 131.094 133.367C129.408 132.926 128.263 131.251 127.971 129.533C127.68 127.814 128.09 126.057 128.605 124.392C130.417 118.533 133.657 112.999 138.451 109.173C139.367 108.443 140.379 107.758 141.536 107.573C143.183 107.31 144.855 108.127 146.029 109.311ZM293.99 119.12C294.398 119.643 294.7 120.281 294.681 120.944C294.658 121.801 294.114 122.553 293.529 123.18C290.128 126.825 284.901 128.066 279.95 128.651C279.623 128.689 279.281 128.724 278.975 128.604C278.724 128.506 278.522 128.312 278.342 128.11C277.148 126.767 276.675 124.889 276.771 123.094C276.868 121.299 277.488 119.571 278.259 117.947C278.422 117.605 278.61 117.246 278.941 117.063C279.205 116.916 279.521 116.905 279.823 116.897L285.814 116.74C287.29 116.701 288.781 116.664 290.225 116.968C291.669 117.272 293.084 117.955 293.99 119.12ZM227.212 62.5047C224.771 57.981 222.944 53.1259 221.799 48.1146L222.785 45.48C224.005 43.1176 225.543 40.9197 227.345 38.9642C228.079 38.1678 229.351 38.0797 230.364 38.4634C231.376 38.8472 232.191 39.6102 232.977 40.355L236.514 43.7065C236.62 43.8062 236.73 43.9138 236.765 44.0544C236.831 44.319 236.612 44.5613 236.414 44.7493C234.758 46.3243 233.286 48.1001 232.106 50.0577C230.322 53.0165 229.232 56.3323 228.158 59.6159L227.212 62.5047ZM236.254 37.0974C243.456 33.2398 251.335 29.6097 259.459 30.4778C263.706 30.9317 267.77 32.6215 271.308 35.0152C261.172 32.4099 249.875 34.813 241.678 41.3178C240.411 42.3232 238.51 43.4152 237.382 42.256C237.092 41.9585 236.903 41.5415 236.718 41.1352C236.423 40.4844 236.139 39.8612 235.477 39.8003C234.846 39.7421 234.565 38.8851 234.832 38.3102C235.1 37.7352 235.694 37.3969 236.254 37.0974ZM216.467 107.656C217.888 109.022 219.454 110.228 221.016 111.43L227.326 116.291C225.383 118.003 223.482 119.763 221.625 121.569C217.204 118.949 213.257 115.53 210.034 111.527C211.798 109.689 213.492 107.783 215.11 105.815C215.365 106.541 215.912 107.122 216.467 107.656ZM175.893 94.5093C172.571 97.1052 169.135 99.8376 167.308 103.637C166.951 104.38 166.656 105.161 166.361 105.941C165.735 107.6 165.111 109.252 163.897 110.515C163.359 110.357 163.147 109.722 163.016 109.177L161.752 103.918C161.581 103.208 161.409 102.479 161.506 101.756C161.603 101.036 161.958 100.38 162.307 99.7427L166.016 92.9634C166.099 92.8122 166.185 92.6573 166.317 92.5472C166.645 92.2746 167.131 92.3614 167.545 92.463L175.893 94.5093ZM229.872 117.798C232.137 120.128 234.953 121.919 238.024 122.983C238.599 122.442 239.708 122.74 239.935 123.496C238.878 124.867 237.718 126.158 236.468 127.355C235.909 127.889 235.015 127.777 234.261 127.604C230.581 126.759 227.037 125.328 223.802 123.38C223.585 123.25 223.342 123.064 223.363 122.813C223.378 122.643 223.511 122.512 223.636 122.397L228.178 118.214C228.654 117.775 229.42 117.334 229.872 117.798ZM287.856 59.3666C287.814 59.8792 287.742 60.4512 287.341 60.7736C287.337 56.7475 286.339 52.7259 284.459 49.1657C284.118 48.52 283.748 47.8889 283.337 47.2854C283.284 47.2078 283.231 47.1302 283.177 47.0523C282.762 46.4535 282.337 45.8407 282.236 45.1257L287.103 50.2095C287.551 50.6772 288.011 51.1652 288.223 51.7771C288.427 52.3673 288.378 53.0109 288.327 53.6332L287.856 59.3666ZM282.264 52.9061L281.162 51.517C279.95 49.9887 278.462 48.32 276.511 48.3178C275.379 48.3166 274.338 48.8963 273.356 49.4596L271.83 50.3346C271.413 50.5737 270.985 50.8223 270.691 51.2025C269.843 52.2989 270.462 53.9008 271.263 55.0317C271.817 55.8141 272.482 56.5655 273.364 56.9421C274.504 57.4292 275.816 57.2138 277.012 56.884C278.649 56.4324 280.232 55.7809 281.712 54.9486C282.186 54.6825 282.709 54.2926 282.685 53.75C282.671 53.4304 282.463 53.1567 282.264 52.9061ZM272.636 53.9783C272.447 53.6764 272.251 53.3539 272.248 52.9974C272.242 52.3002 272.937 51.8323 273.549 51.4985L275.724 50.3121C276.053 50.1327 276.396 49.9492 276.769 49.924C277.143 49.8988 277.559 50.0788 277.684 50.4318C278.055 51.4733 278.969 52.3042 280.041 52.5744C280.388 52.6618 280.5 53.1423 280.336 53.4605C280.172 53.7786 279.836 53.9645 279.516 54.1236C278.369 54.6925 277.171 55.1564 275.94 55.5076C275.446 55.6484 274.924 55.7715 274.425 55.6529C273.609 55.4588 273.083 54.6888 272.636 53.9783ZM257.163 64.7168C255.006 64.968 254.595 68.8576 255.597 70.9322C255.803 71.359 256.126 71.7985 256.596 71.8581C257.4 71.9601 257.844 70.9683 258.022 70.1777L258.026 70.1593C258.261 69.1175 259.307 64.4672 257.163 64.7168ZM246.037 69.8191C246.469 68.8128 246.612 67.6852 246.448 66.6029C246.371 66.1 246.22 65.5895 245.884 65.2076C245.548 64.8257 244.992 64.6037 244.514 64.7758C244.08 64.9316 243.808 65.3554 243.603 65.7676C242.879 67.2227 242.591 68.891 242.784 70.5048C242.874 71.2554 243.82 71.6656 244.538 71.4282C245.255 71.1909 245.739 70.5139 246.037 69.8191ZM252.397 67.5162C252.732 67.2387 253.154 67.7427 253.29 68.1558C253.737 69.5136 254.106 70.8967 254.397 72.2963C254.58 73.1807 254.732 74.0996 254.536 74.9814C254.261 76.2248 253.316 77.2362 252.219 77.8839C251.123 78.5317 249.874 78.867 248.644 79.1952C248.319 79.2818 247.91 79.3436 247.7 79.0808C247.522 78.8576 247.61 78.5081 247.813 78.3071C248.012 78.11 248.289 78.0191 248.555 77.9316L248.571 77.9264C250.49 77.2962 252.54 76.1589 252.986 74.1897C253.232 73.107 252.933 72.0192 252.633 70.9269C252.36 69.9321 252.085 68.9335 252.22 67.9313C252.241 67.7786 252.278 67.6145 252.397 67.5162ZM239 63.0871C238.495 62.3874 238.899 61.3241 239.632 60.8677C240.364 60.4114 241.29 60.4176 242.146 60.5281C243.168 60.66 244.173 60.9199 245.131 61.2998C245.335 61.3806 245.554 61.4836 245.644 61.6837C245.81 62.0544 245.38 62.4601 244.974 62.4598C244.647 62.4595 244.351 62.3021 244.058 62.1466L244.013 62.1227L243.962 62.0958C243.923 62.0754 243.884 62.0554 243.845 62.0361C242.246 61.2428 240.126 61.7026 239 63.0871ZM257.426 62.846C258.186 62.7196 258.991 62.895 259.63 63.3258C259.896 63.5059 260.279 63.203 260.28 62.8811C260.282 62.5592 260.042 62.2884 259.789 62.0894C259.244 61.6606 258.565 61.404 257.873 61.3649C257.426 61.3397 256.931 61.4261 256.644 61.7688C256.356 62.1115 256.443 62.7547 256.874 62.874C257.028 62.9166 257.19 62.8878 257.348 62.8595L257.349 62.8594V62.8593L257.35 62.8592L257.351 62.8591L257.379 62.8542L257.426 62.846ZM247.997 82.5855C248.211 82.4648 248.493 82.6755 248.525 82.919C248.556 83.1625 248.418 83.3954 248.259 83.5827C247.462 84.5228 246.09 84.8124 244.877 84.592C243.665 84.3716 242.578 83.7198 241.556 83.0323C241.075 82.709 240.601 82.3751 240.135 82.0308C239.652 81.674 239.137 81.2374 239.079 80.6396C239.021 80.0418 239.787 79.4392 240.225 79.851C241.299 80.863 242.398 81.8918 243.735 82.518C245.072 83.1442 246.711 83.311 247.997 82.5855ZM224.984 87.3785C220.506 77.6454 218.638 66.7262 219.626 56.0581C219.643 55.8758 219.666 55.6806 219.786 55.5427C219.956 55.3482 220.305 55.3563 220.465 55.5585C220.408 61.427 220.353 67.3308 221.311 73.1208C222.269 78.9109 224.303 84.6392 228.017 89.1833C228.128 89.319 228.241 89.4542 228.354 89.5895C228.993 90.3556 229.637 91.1282 229.999 92.052C227.584 92.0054 225.994 89.573 224.984 87.3785ZM229.376 43.427C229.293 43.3375 229.197 43.2584 229.085 43.2101C228.762 43.0707 228.383 43.2136 228.101 43.4229C226.974 44.2572 226.969 46.2081 228.093 47.0475C228.641 46.5806 229.203 46.0956 229.524 45.4513C229.845 44.807 229.865 43.9557 229.376 43.427ZM239.094 53.7054C240.309 54.6915 241.693 55.4681 243.168 55.991C247.926 57.6784 253.274 56.619 257.866 54.5201C258.567 54.1994 259.463 54.3685 259.999 54.9229C257.05 57.024 253.438 58.1789 249.818 58.1781C249.019 58.1779 248.222 58.1232 247.427 58.0537C245.799 57.9115 244.159 57.703 242.628 57.133C241.097 56.563 239.668 55.5988 238.801 54.214L239.094 53.7054ZM290.912 117.838C290.865 118 290.995 118.155 291.115 118.274L292.923 120.068C293.12 119.552 292.899 118.951 292.52 118.55C292.14 118.148 291.628 117.904 291.129 117.668C291.031 117.673 290.94 117.744 290.912 117.838Z" fill="#171717"/>
<path fill-rule="evenodd" clip-rule="evenodd" d="M409.654 48.0453C411.869 48.813 413.956 46.8154 415.865 45.4545C418.818 43.3488 422.671 42.5525 426.217 43.3151C426.806 43.4416 427.422 43.6315 427.809 44.0919C428.164 44.5129 428.264 45.0872 428.321 45.6344C428.671 48.9844 427.833 52.4461 425.991 55.2659C425.094 56.6376 423.972 57.859 423.17 59.2882C422.369 60.7174 421.911 62.4635 422.482 63.9994C425.877 73.1307 424.464 83.9009 418.829 91.8477C413.194 99.7946 403.498 104.691 393.758 104.509C388.777 104.416 383.896 103.087 379.203 101.415C377.155 100.685 374.904 99.8847 372.872 100.655C369.163 102.061 365.258 102.948 361.306 103.284C360.325 103.367 359.3 103.41 358.395 103.023C357.041 102.443 356.223 100.975 356.067 99.5095C355.912 98.0444 356.317 96.5778 356.828 95.1961C358.372 91.0282 363.163 84.5174 366.063 83.0176C365.829 77.9564 365.854 72.8359 366.949 67.8888C368.043 62.9417 370.276 58.1414 373.939 54.6411C375.452 53.1952 377.184 51.9919 378.997 50.9477C388.171 45.6662 399.653 44.5791 409.654 48.0453ZM395.685 47.6345C388.67 47.7986 381.842 50.6164 376.359 54.9941C374.749 56.2794 373.235 57.7073 372.027 59.3758C371.074 60.6911 370.321 62.1423 369.692 63.6394C365.957 72.5225 366.809 83.1953 371.907 91.3727C372.018 91.551 372.146 91.74 372.344 91.8093C372.589 91.8947 372.852 91.7702 373.081 91.6483C389.092 83.1159 403.343 71.2985 414.692 57.1438C414.963 56.8067 415.247 56.4152 415.189 55.9871C415.145 55.6659 414.916 55.4051 414.692 55.1706C409.849 50.0931 402.7 47.4703 395.685 47.6345ZM405.492 100.663C413.097 97.0931 418.873 90.0379 421.343 82.0081C421.902 80.1898 422.304 78.3101 422.344 76.4082C422.377 74.8087 422.154 73.2162 421.931 71.632C421.608 69.3352 421.286 67.0383 420.963 64.7415C420.877 64.1326 420.29 63.3288 419.862 63.7698C407.963 76.015 394.97 87.1966 381.089 97.1377C380.627 97.4685 380.118 97.8776 380.093 98.4452C380.065 99.1022 380.691 99.5788 381.261 99.9073C388.539 104.104 397.887 104.234 405.492 100.663ZM358.583 99.7286C359.137 100.616 360.336 100.798 361.381 100.827C366.865 100.978 372.291 99.3713 377.197 96.9171C382.104 94.4628 386.545 91.18 390.86 87.7929C396.616 83.2752 402.2 78.5405 407.642 73.6493C414.382 67.5916 421.005 61.1662 425.43 53.258C426.286 51.7283 427.076 50.0509 426.942 48.3031C426.808 46.5553 425.414 44.7907 423.662 44.859C419.945 45.004 416.291 46.4332 413.461 48.8481C412.899 49.3284 413.296 50.3507 413.989 50.6107C414.681 50.8706 415.453 50.6123 416.13 50.3136C416.807 50.0149 417.512 49.6655 418.247 49.7472C419.37 49.8721 420.168 51.022 420.235 52.1502C420.302 53.2784 419.803 54.3626 419.215 55.3279C418.127 57.1142 416.706 58.6713 415.271 60.1923C402.509 73.7123 387.788 85.3796 371.711 94.7158C370.263 95.5565 368.798 96.3814 367.24 96.994C366.422 97.3153 365.485 97.5732 364.688 97.2058C363.38 96.6034 363.275 94.767 363.667 93.3815C364.256 91.3011 365.529 89.4206 367.242 88.1007C366.918 87.1868 366.593 86.273 366.269 85.3592C362.041 88.0594 359.075 92.6522 358.352 97.6159C358.247 98.3322 358.2 99.1143 358.583 99.7286ZM370.603 93.4571C370.633 93.3628 370.578 93.2646 370.526 93.1809C369.979 92.3132 369.433 91.4455 368.887 90.5778C368.64 90.1852 368.162 89.7406 367.792 90.0196C366.457 91.025 365.501 92.5224 365.152 94.1566C365.083 94.4791 365.043 94.839 365.218 95.1182C365.545 95.6375 366.325 95.5219 366.903 95.3149C368.134 94.8737 369.32 94.3064 370.436 93.6247C370.505 93.5827 370.579 93.534 370.603 93.4571ZM418.11 52.1527C418.055 51.9273 417.787 51.8294 417.555 51.8193C416.851 51.7886 416.116 52.3671 416.161 53.07C416.205 53.7728 417.25 54.2154 417.687 53.6628C417.818 53.4959 417.874 53.2832 417.927 53.0771C417.979 52.873 418.031 52.6689 418.083 52.4648C418.109 52.3625 418.135 52.2552 418.11 52.1527Z" fill="#171717"/>
<path d="M476.5 287C484.508 287 491 280.508 491 272.5C491 264.492 484.508 258 476.5 258C468.492 258 462 264.492 462 272.5C462 280.508 468.492 287 476.5 287Z" fill="#8C8C8C"/>
<path d="M49 38C53.9706 38 58 33.9706 58 29C58 24.0294 53.9706 20 49 20C44.0294 20 40 24.0294 40 29C40 33.9706 44.0294 38 49 38Z" fill="#D9D9D9"/>
<path d="M17 83C26.3888 83 34 75.3888 34 66C34 56.6112 26.3888 49 17 49C7.61116 49 0 56.6112 0 66C0 75.3888 7.61116 83 17 83Z" fill="#595959"/>
<path d="M451.5 307C453.985 307 456 304.985 456 302.5C456 300.015 453.985 298 451.5 298C449.015 298 447 300.015 447 302.5C447 304.985 449.015 307 451.5 307Z" fill="#D9D9D9"/>
</svg>
