<svg width="159" height="45" viewBox="0 0 159 45" fill="none" xmlns="http://www.w3.org/2000/svg">
<path d="M0.146973 1.50391V11.813H10.8907V33.1576C10.8907 33.1576 14.8911 31.526 22.4282 29.3748V11.813H33.1093V1.50391H0.146973Z" fill="#253B80"/>
<path d="M57.5883 1.5022H47.0295L37.8621 25.5651C41.5068 24.7912 45.4931 24.0285 49.8093 23.3133L52.3388 16.1864L54.6007 22.559C57.9354 22.0617 61.4436 21.5979 65.1168 21.1817L57.5883 1.5022Z" fill="#253B80"/>
<path d="M67.0792 26.3167C54.3609 28.602 43.3412 31.5522 34.5095 34.3628L31.522 42.1994V43.4594H43.3042L45.441 36.9861H59.2348L61.2493 43.4594H73.1538V42.1994L67.0792 26.3167Z" fill="#179BD7"/>
<path d="M98.4993 22.6315V28.4147H105.015C103.368 31.8902 100.132 33.5692 95.9215 33.5692C89.568 33.5692 85.4139 29.6663 84.9217 23.7435C80.927 24.1765 77.0517 24.6934 73.3074 25.2745C74.5564 36.4943 83.3454 44.2387 95.3723 44.2387C108.187 44.2387 117.09 35.4746 117.375 22.3186C110.885 22.1761 104.582 22.2991 98.4993 22.6315Z" fill="#179BD7"/>
<path d="M95.1274 0.722778C83.0351 0.722778 74.2034 8.83036 73.2417 20.3687C77.0743 20.0335 81.0662 19.7541 85.206 19.5446C86.3498 14.6247 90.3559 11.4537 95.7363 11.4537C100.01 11.4537 103.245 13.2501 105.137 16.7871H116.797C114.66 7.01719 106.176 0.722778 95.1274 0.722778Z" fill="#253B80"/>
<path d="M143.289 1.5022H132.727L125.728 19.8798C127.757 20.0111 129.805 20.1619 131.877 20.3324L129.39 18.4549C128.957 18.1308 129.194 17.4548 129.737 17.4548H135.812L137.51 12.3086C137.681 11.7945 138.424 11.7945 138.594 12.3114L140.273 17.4548H146.368C146.911 17.4548 147.144 18.1308 146.712 18.4577L141.815 22.1399L143.804 28.2276C143.969 28.7249 143.409 29.1496 142.959 28.8702L138.054 25.8194L133.123 28.873C132.673 29.1524 132.116 28.7277 132.278 28.2304L133.908 23.2491C130.801 22.9641 127.731 22.7462 124.695 22.5897L117.224 42.1994V43.4594H129.003L131.14 36.9862H144.936L146.951 43.4594H158.853V42.1994L143.289 1.5022Z" fill="#179BD7"/>
</svg>
