<svg width="24" height="24" viewBox="0 0 24 24" fill="none"
    xmlns="http://www.w3.org/2000/svg">
    <g opacity="0.5">
        <path fill-rule="evenodd" clip-rule="evenodd" d="M20.0989 6.37595L13.8332 2.47293C12.8211 1.84249 11.1791 1.84223 10.1666 2.47293L3.90094 6.37595C2.88888 7.00639 2.88842 8.02925 3.90094 8.65995L10.1666 12.563C11.1787 13.1934 12.8207 13.1937 13.8332 12.563L20.0989 8.65995C21.1109 8.02951 21.1114 7.00664 20.0989 6.37595ZM20.0988 11.1329L19.9681 11.0515L13.3842 15.2058L13.3817 15.2054L12.9452 15.4824C12.429 15.81 11.5898 15.8086 11.0757 15.4824L6.02793 12.279L6.02907 12.2783L4.05653 11.0359L3.90082 11.1329C2.88876 11.7633 2.8883 12.7862 3.90082 13.4169L10.1665 17.3199C11.1785 17.9504 12.8206 17.9506 13.8331 17.3199L20.0987 13.4169C21.1108 12.7865 21.1113 11.7636 20.0988 11.1329ZM19.9681 15.8084L20.0989 15.8899C21.1114 16.5206 21.1109 17.5434 20.0989 18.1739L13.8332 22.0769C12.8207 22.7076 11.1787 22.7073 10.1666 22.0769L3.90094 18.1739C2.88842 17.5432 2.88888 16.5203 3.90094 15.8899L4.05665 15.7929L6.02919 17.0352L6.02805 17.0359L11.0758 20.2393C11.5899 20.5655 12.429 20.5669 12.9453 20.2393L13.3818 19.9623L13.3842 19.9627L19.9681 15.8084Z" fill="#8C8C8C"/>
    </g>
</svg>
