<svg width="20" height="20" viewBox="0 0 20 20" fill="none" xmlns="http://www.w3.org/2000/svg">
<path d="M10.7172 0.00012207C11.4734 0.00012207 12.1581 0.420122 12.5362 1.04012C12.7202 1.34012 12.8428 1.71012 12.8122 2.10012C12.7917 2.40012 12.8837 2.70012 13.0472 2.98012C13.5684 3.83012 14.7232 4.15012 15.6226 3.67012C16.6343 3.09012 17.9117 3.44012 18.4943 4.43012L19.179 5.61012C19.7717 6.60012 19.4447 7.87012 18.4227 8.44012C17.5541 8.95012 17.2475 10.0801 17.7687 10.9401C17.9322 11.2101 18.1161 11.4401 18.4023 11.5801C18.76 11.7701 19.0359 12.0701 19.2301 12.3701C19.6082 12.9901 19.5775 13.7501 19.2096 14.4201L18.4943 15.6201C18.1161 16.2601 17.411 16.6601 16.6854 16.6601C16.3277 16.6601 15.9291 16.5601 15.6021 16.3601C15.3364 16.1901 15.0298 16.1301 14.7028 16.1301C13.6911 16.1301 12.8428 16.9601 12.8122 17.9501C12.8122 19.1001 11.872 20.0001 10.6967 20.0001H9.30686C8.12139 20.0001 7.18119 19.1001 7.18119 17.9501C7.16075 16.9601 6.31253 16.1301 5.30079 16.1301C4.96354 16.1301 4.65696 16.1901 4.40147 16.3601C4.07444 16.5601 3.66566 16.6601 3.31819 16.6601C2.58238 16.6601 1.87723 16.2601 1.49911 15.6201L0.793959 14.4201C0.415835 13.7701 0.395395 12.9901 0.77352 12.3701C0.937033 12.0701 1.24362 11.7701 1.59109 11.5801C1.87723 11.4401 2.06119 11.2101 2.23492 10.9401C2.7459 10.0801 2.43931 8.95012 1.57065 8.44012C0.558909 7.87012 0.231882 6.60012 0.814398 5.61012L1.49911 4.43012C2.09184 3.44012 3.35907 3.09012 4.38103 3.67012C5.27013 4.15012 6.42494 3.83012 6.94614 2.98012C7.10966 2.70012 7.20163 2.40012 7.18119 2.10012C7.16075 1.71012 7.27317 1.34012 7.46734 1.04012C7.84546 0.420122 8.53018 0.0201221 9.27621 0.00012207H10.7172ZM10.012 7.18012C8.40754 7.18012 7.10966 8.44012 7.10966 10.0101C7.10966 11.5801 8.40754 12.8301 10.012 12.8301C11.6165 12.8301 12.8837 11.5801 12.8837 10.0101C12.8837 8.44012 11.6165 7.18012 10.012 7.18012Z" fill="#8C8C8C"/>
</svg>
