<svg width="20" height="20" viewBox="0 0 20 20" fill="none" xmlns="http://www.w3.org/2000/svg">
<path d="M14.6605 9.15527e-05C18.0605 9.15527e-05 20.0005 1.92009 20.0005 5.33009V14.6701C20.0005 18.0601 18.0705 20.0001 14.6705 20.0001H5.33049C1.92049 20.0001 0.000488281 18.0601 0.000488281 14.6701V5.33009C0.000488281 1.92009 1.92049 9.15527e-05 5.33049 9.15527e-05H14.6605ZM9.99049 5.51009C9.53049 5.51009 9.16049 5.88009 9.16049 6.34009V9.16009H6.33049C6.11049 9.16009 5.90049 9.25009 5.74049 9.40009C5.59049 9.56009 5.50049 9.76909 5.50049 9.99009C5.50049 10.4501 5.87049 10.8201 6.33049 10.8301H9.16049V13.6601C9.16049 14.1201 9.53049 14.4901 9.99049 14.4901C10.4505 14.4901 10.8205 14.1201 10.8205 13.6601V10.8301H13.6605C14.1205 10.8201 14.4905 10.4501 14.4905 9.99009C14.4905 9.53009 14.1205 9.16009 13.6605 9.16009H10.8205V6.34009C10.8205 5.88009 10.4505 5.51009 9.99049 5.51009Z" fill="#BFBFBF"/>
</svg>
